<svg width="500" height="262" viewBox="0 0 500 262" fill="none" xmlns="http://www.w3.org/2000/svg">
<path d="M2.25 128H18.15L25.5 208.7H25.8L33.6 128H51.6L59.4 208.7H59.7L67.05 128H81.3L70.65 233H50.1L42.6 162.2H42.3L34.8 233H12.9L2.25 128ZM89.6461 128H106.146V170.75H123.846V128H140.346V233H123.846V185.75H106.146V233H89.6461V128ZM152.634 128H197.634V143H169.134V170.75H191.784V185.75H169.134V218H197.634V233H152.634V128ZM219.877 128H242.227L259.327 233H242.827L239.827 212.15V212.45H221.077L218.077 233H202.777L219.877 128ZM237.877 198.2L230.527 146.3H230.227L223.027 198.2H237.877ZM267.332 128H283.832V218H310.982V233H267.332V128ZM320.075 143H302.825V128H353.825V143H336.575V233H320.075V143ZM361.814 128H378.314V170.75H396.014V128H412.514V233H396.014V185.75H378.314V233H361.814V128ZM439.952 188.3L420.002 128H437.552L448.802 166.55H449.102L460.352 128H476.402L456.452 188.3V233H439.952V188.3Z" fill="black"/>
<path d="M2.952 57.6H14.688C18.768 57.6 21.744 58.56 23.616 60.48C25.488 62.352 26.424 65.256 26.424 69.192V72.288C26.424 77.52 24.696 80.832 21.24 82.224V82.368C23.16 82.944 24.504 84.12 25.272 85.896C26.088 87.672 26.496 90.048 26.496 93.024V101.88C26.496 103.32 26.544 104.496 26.64 105.408C26.736 106.272 26.976 107.136 27.36 108H19.296C19.008 107.184 18.816 106.416 18.72 105.696C18.624 104.976 18.576 103.68 18.576 101.808V92.592C18.576 90.288 18.192 88.68 17.424 87.768C16.704 86.856 15.432 86.4 13.608 86.4H10.872V108H2.952V57.6ZM13.752 79.2C15.336 79.2 16.512 78.792 17.28 77.976C18.096 77.16 18.504 75.792 18.504 73.872V69.984C18.504 68.16 18.168 66.84 17.496 66.024C16.872 65.208 15.864 64.8 14.472 64.8H10.872V79.2H13.752ZM31.9911 57.6H53.5911V64.8H39.9111V78.12H50.7831V85.32H39.9111V100.8H53.5911V108H31.9911V57.6ZM69.3793 108.72C65.5393 108.72 62.6113 107.64 60.5953 105.48C58.5793 103.272 57.5713 100.128 57.5713 96.048V69.552C57.5713 65.472 58.5793 62.352 60.5953 60.192C62.6113 57.984 65.5393 56.88 69.3793 56.88C73.2193 56.88 76.1473 57.984 78.1633 60.192C80.1793 62.352 81.1873 65.472 81.1873 69.552V73.872H73.6993V69.048C73.6993 65.736 72.3313 64.08 69.5953 64.08C66.8593 64.08 65.4913 65.736 65.4913 69.048V96.624C65.4913 99.888 66.8593 101.52 69.5953 101.52C72.3313 101.52 73.6993 99.888 73.6993 96.624V86.76H69.7393V79.56H81.1873V96.048C81.1873 100.128 80.1793 103.272 78.1633 105.48C76.1473 107.64 73.2193 108.72 69.3793 108.72ZM86.2723 57.6H94.1923V108H86.2723V57.6ZM90.9523 45.936H99.5923L91.8883 54.216H85.9123L90.9523 45.936ZM110.42 108.72C106.58 108.72 103.676 107.64 101.708 105.48C99.7399 103.272 98.7559 100.128 98.7559 96.048V93.168H106.244V96.624C106.244 99.888 107.612 101.52 110.348 101.52C111.692 101.52 112.7 101.136 113.372 100.368C114.092 99.552 114.452 98.256 114.452 96.48C114.452 94.368 113.972 92.52 113.012 90.936C112.052 89.304 110.276 87.36 107.684 85.104C104.42 82.224 102.14 79.632 100.844 77.328C99.5479 74.976 98.8999 72.336 98.8999 69.408C98.8999 65.424 99.9079 62.352 101.924 60.192C103.94 57.984 106.868 56.88 110.708 56.88C114.5 56.88 117.356 57.984 119.276 60.192C121.244 62.352 122.228 65.472 122.228 69.552V71.64H114.74V69.048C114.74 67.32 114.404 66.072 113.732 65.304C113.06 64.488 112.076 64.08 110.78 64.08C108.14 64.08 106.82 65.688 106.82 68.904C106.82 70.728 107.3 72.432 108.26 74.016C109.268 75.6 111.068 77.52 113.66 79.776C116.972 82.656 119.252 85.272 120.5 87.624C121.748 89.976 122.372 92.736 122.372 95.904C122.372 100.032 121.34 103.2 119.276 105.408C117.26 107.616 114.308 108.72 110.42 108.72ZM133.105 64.8H124.825V57.6H149.305V64.8H141.025V108H133.105V64.8ZM153.14 57.6H164.876C168.956 57.6 171.932 58.56 173.804 60.48C175.676 62.352 176.612 65.256 176.612 69.192V72.288C176.612 77.52 174.884 80.832 171.428 82.224V82.368C173.348 82.944 174.692 84.12 175.46 85.896C176.276 87.672 176.684 90.048 176.684 93.024V101.88C176.684 103.32 176.732 104.496 176.828 105.408C176.924 106.272 177.164 107.136 177.548 108H169.484C169.196 107.184 169.004 106.416 168.908 105.696C168.812 104.976 168.764 103.68 168.764 101.808V92.592C168.764 90.288 168.38 88.68 167.612 87.768C166.892 86.856 165.62 86.4 163.796 86.4H161.06V108H153.14V57.6ZM163.94 79.2C165.524 79.2 166.7 78.792 167.468 77.976C168.284 77.16 168.691 75.792 168.691 73.872V69.984C168.691 68.16 168.356 66.84 167.684 66.024C167.06 65.208 166.052 64.8 164.66 64.8H161.06V79.2H163.94ZM188.299 57.6H199.027L207.235 108H199.315L197.875 97.992V98.136H188.875L187.435 108H180.091L188.299 57.6ZM196.939 91.296L193.411 66.384H193.267L189.811 91.296H196.939ZM213.964 64.8H205.684V57.6H230.164V64.8H221.884V108H213.964V64.8ZM233.999 57.6H255.599V64.8H241.919V78.12H252.791V85.32H241.919V100.8H255.599V108H233.999V57.6ZM270.702 74.4H285.102V79.2H275.982V88.08H283.23V92.88H275.982V103.2H285.102V108H270.702V74.4ZM288.14 74.4H294.764L299.9 94.512H299.996V74.4H304.7V108H299.276L292.94 83.472H292.844V108H288.14V74.4Z" fill="black"/>
</svg>
