<svg width="996" height="301" viewBox="0 0 996 301" fill="none" xmlns="http://www.w3.org/2000/svg">
<path d="M126 36.968H172.08V60.584H166.32L144.864 149H101.808L88.704 86.792H87.264L73.44 149H30.384L7.488 60.584H1.728V36.968H55.008V60.584H49.536L55.152 97.304H56.592L70.272 36.968H111.744L124.416 97.304H125.856L131.472 60.584H126V36.968ZM272.021 125.384V149H226.517V125.384H232.565V101.768C232.565 98.6 231.893 96.296 230.549 94.856C229.205 93.32 227.189 92.552 224.501 92.552C218.741 92.552 215.861 95.624 215.861 101.768V125.384H221.909V149H176.405V125.384H182.741V60.584H176.405V36.968H215.861V80.168C219.413 75.752 223.253 72.44 227.381 70.232C231.509 68.024 236.309 66.92 241.781 66.92C249.749 66.92 255.701 69.416 259.637 74.408C263.669 79.4 265.685 86.264 265.685 95V125.384H272.021ZM319.582 151.016C305.95 151.016 295.294 147.464 287.614 140.36C279.934 133.16 276.094 122.696 276.094 108.968C276.094 95.24 279.934 84.824 287.614 77.72C295.294 70.52 305.95 66.92 319.582 66.92C333.118 66.92 342.862 70.472 348.814 77.576C354.862 84.584 357.886 93.32 357.886 103.784V114.152H311.23V115.016C311.23 118.568 312.286 121.208 314.398 122.936C316.51 124.568 320.014 125.384 324.91 125.384C330.766 125.384 336.334 124.952 341.614 124.088C346.894 123.224 351.502 122.12 355.438 120.776V143.816C352.078 145.64 347.134 147.32 340.606 148.856C334.174 150.296 327.166 151.016 319.582 151.016ZM327.934 98.312V96.584C327.934 93.32 327.214 90.968 325.774 89.528C324.43 88.088 322.366 87.368 319.582 87.368C316.798 87.368 314.686 88.136 313.246 89.672C311.902 91.112 311.23 93.416 311.23 96.584V98.312H327.934ZM446.122 125.384V149H408.106V139.208C405.994 142.28 403.018 145.016 399.178 147.416C395.434 149.816 390.826 151.016 385.354 151.016C378.154 151.016 372.49 149.096 368.362 145.256C364.234 141.416 362.17 135.992 362.17 128.984C362.17 110.84 377.578 101.528 408.394 101.048C408.106 97.784 406.858 95.576 404.65 94.424C402.442 93.176 398.698 92.552 393.418 92.552C389.098 92.552 384.442 93.032 379.45 93.992C374.554 94.856 370.042 96.056 365.914 97.592V71.096C371.002 69.848 376.522 68.84 382.474 68.072C388.426 67.304 394.234 66.92 399.898 66.92C414.202 66.92 424.426 69.512 430.57 74.696C436.714 79.88 439.786 87.896 439.786 98.744V125.384H446.122ZM408.106 115.304C403.786 115.304 400.426 115.88 398.026 117.032C395.722 118.184 394.57 120.104 394.57 122.792C394.57 124.424 395.05 125.768 396.01 126.824C397.066 127.784 398.506 128.264 400.33 128.264C402.826 128.264 404.746 127.208 406.09 125.096C407.434 122.984 408.106 120.008 408.106 116.168V115.304ZM450.764 149.144V125.384H457.1V60.584H450.764V36.968H490.22V125.384H496.556V149.144H450.764ZM536.676 151.016C526.5 151.016 518.82 148.568 513.636 143.672C508.548 138.68 506.004 130.328 506.004 118.616V92.552H499.668V68.936C503.316 68.936 506.052 68.024 507.876 66.2C509.7 64.28 510.612 61.688 510.612 58.424V51.944H541.14V68.936H560.58V92.552H541.14V116.168C541.14 119.336 541.812 121.688 543.156 123.224C544.596 124.664 546.708 125.384 549.492 125.384C553.14 125.384 557.124 124.952 561.444 124.088V146.696C558.756 147.752 555.108 148.712 550.5 149.576C545.988 150.536 541.38 151.016 536.676 151.016ZM661.692 125.384V149H616.188V125.384H622.236V101.768C622.236 98.6 621.564 96.296 620.22 94.856C618.876 93.32 616.86 92.552 614.172 92.552C608.412 92.552 605.532 95.624 605.532 101.768V125.384H611.58V149H566.076V125.384H572.412V60.584H566.076V36.968H605.532V80.168C609.084 75.752 612.924 72.44 617.052 70.232C621.18 68.024 625.98 66.92 631.452 66.92C639.42 66.92 645.372 69.416 649.308 74.408C653.34 79.4 655.356 86.264 655.356 95V125.384H661.692ZM753.03 68.936V92.552H747.558L728.694 142.52C723.99 155.096 718.614 164.504 712.566 170.744C706.518 177.08 698.55 180.248 688.662 180.248C684.63 180.248 680.55 179.816 676.422 178.952C672.294 178.184 668.55 177.08 665.19 175.64V149.576H685.062V151.016C685.062 153.416 686.31 154.616 688.806 154.616C691.014 154.616 692.694 153.56 693.846 151.448L671.094 92.552H665.622V68.936H708.39V92.552H703.494L710.982 115.016L717.894 92.552H712.998V68.936H753.03Z" fill="white"/>
<path d="M8.89 205H0.84V198H24.64V205H16.59V247H8.89V205ZM39.568 247.7C35.8347 247.7 32.988 246.65 31.028 244.55C29.068 242.403 28.088 239.347 28.088 235.38V198H35.788V235.94C35.788 237.62 36.1147 238.833 36.768 239.58C37.468 240.327 38.448 240.7 39.708 240.7C40.968 240.7 41.9247 240.327 42.578 239.58C43.278 238.833 43.628 237.62 43.628 235.94V198H51.048V235.38C51.048 239.347 50.068 242.403 48.108 244.55C46.148 246.65 43.3014 247.7 39.568 247.7ZM77.753 247.7C74.0197 247.7 71.1964 246.65 69.283 244.55C67.3697 242.403 66.413 239.347 66.413 235.38V232.58H73.693V235.94C73.693 239.113 75.023 240.7 77.683 240.7C78.9897 240.7 79.9697 240.327 80.623 239.58C81.323 238.787 81.673 237.527 81.673 235.8C81.673 233.747 81.2064 231.95 80.273 230.41C79.3397 228.823 77.613 226.933 75.093 224.74C71.9197 221.94 69.703 219.42 68.443 217.18C67.183 214.893 66.553 212.327 66.553 209.48C66.553 205.607 67.533 202.62 69.493 200.52C71.453 198.373 74.2997 197.3 78.033 197.3C81.7197 197.3 84.4964 198.373 86.363 200.52C88.2764 202.62 89.233 205.653 89.233 209.62V211.65H81.953V209.13C81.953 207.45 81.6264 206.237 80.973 205.49C80.3197 204.697 79.363 204.3 78.103 204.3C75.5364 204.3 74.253 205.863 74.253 208.99C74.253 210.763 74.7197 212.42 75.653 213.96C76.633 215.5 78.383 217.367 80.903 219.56C84.123 222.36 86.3397 224.903 87.553 227.19C88.7664 229.477 89.373 232.16 89.373 235.24C89.373 239.253 88.3697 242.333 86.363 244.48C84.403 246.627 81.533 247.7 77.753 247.7ZM93.788 198H114.788V205H101.488V217.95H112.058V224.95H101.488V240H114.788V247H93.788V198ZM119.218 198H130.628C134.594 198 137.488 198.933 139.308 200.8C141.128 202.62 142.038 205.443 142.038 209.27V212.28C142.038 217.367 140.358 220.587 136.998 221.94V222.08C138.864 222.64 140.171 223.783 140.918 225.51C141.711 227.237 142.108 229.547 142.108 232.44V241.05C142.108 242.45 142.154 243.593 142.248 244.48C142.341 245.32 142.574 246.16 142.948 247H135.108C134.828 246.207 134.641 245.46 134.548 244.76C134.454 244.06 134.408 242.8 134.408 240.98V232.02C134.408 229.78 134.034 228.217 133.288 227.33C132.588 226.443 131.351 226 129.578 226H126.918V247H119.218V198ZM129.718 219C131.258 219 132.401 218.603 133.148 217.81C133.941 217.017 134.338 215.687 134.338 213.82V210.04C134.338 208.267 134.011 206.983 133.358 206.19C132.751 205.397 131.771 205 130.418 205H126.918V219H129.718ZM145.147 198H152.917L157.957 236.01H158.097L163.137 198H170.207L162.787 247H152.567L145.147 198ZM173.905 198H181.605V247H173.905V198ZM198.222 247.7C194.535 247.7 191.712 246.65 189.752 244.55C187.839 242.45 186.882 239.487 186.882 235.66V209.34C186.882 205.513 187.839 202.55 189.752 200.45C191.712 198.35 194.535 197.3 198.222 197.3C201.909 197.3 204.709 198.35 206.622 200.45C208.582 202.55 209.562 205.513 209.562 209.34V214.52H202.282V208.85C202.282 205.817 200.999 204.3 198.432 204.3C195.865 204.3 194.582 205.817 194.582 208.85V236.22C194.582 239.207 195.865 240.7 198.432 240.7C200.999 240.7 202.282 239.207 202.282 236.22V228.73H209.562V235.66C209.562 239.487 208.582 242.45 206.622 244.55C204.709 246.65 201.909 247.7 198.222 247.7ZM214.169 198H221.869V247H214.169V198ZM238.766 247.7C234.986 247.7 232.092 246.627 230.086 244.48C228.079 242.333 227.076 239.3 227.076 235.38V209.62C227.076 205.7 228.079 202.667 230.086 200.52C232.092 198.373 234.986 197.3 238.766 197.3C242.546 197.3 245.439 198.373 247.446 200.52C249.452 202.667 250.456 205.7 250.456 209.62V235.38C250.456 239.3 249.452 242.333 247.446 244.48C245.439 246.627 242.546 247.7 238.766 247.7ZM238.766 240.7C241.426 240.7 242.756 239.09 242.756 235.87V209.13C242.756 205.91 241.426 204.3 238.766 204.3C236.106 204.3 234.776 205.91 234.776 209.13V235.87C234.776 239.09 236.106 240.7 238.766 240.7ZM266.874 198H277.864L282.764 233.07H282.904L287.804 198H298.794V247H291.514V209.9H291.374L285.774 247H279.334L273.734 209.9H273.594V247H266.874V198ZM304.54 198H325.54V205H312.24V217.95H322.81V224.95H312.24V240H325.54V247H304.54V198ZM315.74 186.66H324.14L316.65 194.71H310.84L315.74 186.66ZM329.97 198H341.73C345.556 198 348.426 199.027 350.34 201.08C352.253 203.133 353.21 206.143 353.21 210.11V234.89C353.21 238.857 352.253 241.867 350.34 243.92C348.426 245.973 345.556 247 341.73 247H329.97V198ZM341.59 240C342.85 240 343.806 239.627 344.46 238.88C345.16 238.133 345.51 236.92 345.51 235.24V209.76C345.51 208.08 345.16 206.867 344.46 206.12C343.806 205.373 342.85 205 341.59 205H337.67V240H341.59ZM358.407 198H366.107V247H358.407V198ZM382.724 247.7C379.037 247.7 376.214 246.65 374.254 244.55C372.341 242.45 371.384 239.487 371.384 235.66V209.34C371.384 205.513 372.341 202.55 374.254 200.45C376.214 198.35 379.037 197.3 382.724 197.3C386.411 197.3 389.211 198.35 391.124 200.45C393.084 202.55 394.064 205.513 394.064 209.34V214.52H386.784V208.85C386.784 205.817 385.501 204.3 382.934 204.3C380.367 204.3 379.084 205.817 379.084 208.85V236.22C379.084 239.207 380.367 240.7 382.934 240.7C385.501 240.7 386.784 239.207 386.784 236.22V228.73H394.064V235.66C394.064 239.487 393.084 242.45 391.124 244.55C389.211 246.65 386.411 247.7 382.724 247.7ZM409.938 247.7C406.158 247.7 403.264 246.627 401.258 244.48C399.251 242.333 398.247 239.3 398.247 235.38V209.62C398.247 205.7 399.251 202.667 401.258 200.52C403.264 198.373 406.158 197.3 409.938 197.3C413.718 197.3 416.611 198.373 418.618 200.52C420.624 202.667 421.628 205.7 421.628 209.62V235.38C421.628 239.3 420.624 242.333 418.618 244.48C416.611 246.627 413.718 247.7 409.938 247.7ZM409.938 240.7C412.598 240.7 413.927 239.09 413.927 235.87V209.13C413.927 205.91 412.598 204.3 409.938 204.3C407.278 204.3 405.948 205.91 405.948 209.13V235.87C405.948 239.09 407.278 240.7 409.938 240.7ZM438.046 198H459.046V205H445.746V217.95H456.316V224.95H445.746V240H459.046V247H438.046V198ZM473.622 247.7C469.889 247.7 467.066 246.65 465.152 244.55C463.239 242.403 462.282 239.347 462.282 235.38V232.58H469.562V235.94C469.562 239.113 470.892 240.7 473.552 240.7C474.859 240.7 475.839 240.327 476.492 239.58C477.192 238.787 477.542 237.527 477.542 235.8C477.542 233.747 477.076 231.95 476.142 230.41C475.209 228.823 473.482 226.933 470.962 224.74C467.789 221.94 465.572 219.42 464.312 217.18C463.052 214.893 462.422 212.327 462.422 209.48C462.422 205.607 463.402 202.62 465.362 200.52C467.322 198.373 470.169 197.3 473.902 197.3C477.589 197.3 480.366 198.373 482.232 200.52C484.146 202.62 485.102 205.653 485.102 209.62V211.65H477.822V209.13C477.822 207.45 477.496 206.237 476.842 205.49C476.189 204.697 475.232 204.3 473.972 204.3C471.406 204.3 470.122 205.863 470.122 208.99C470.122 210.763 470.589 212.42 471.522 213.96C472.502 215.5 474.252 217.367 476.772 219.56C479.992 222.36 482.209 224.903 483.422 227.19C484.636 229.477 485.242 232.16 485.242 235.24C485.242 239.253 484.239 242.333 482.232 244.48C480.272 246.627 477.402 247.7 473.622 247.7ZM511.718 247.7C508.031 247.7 505.208 246.65 503.248 244.55C501.335 242.45 500.378 239.487 500.378 235.66V209.34C500.378 205.513 501.335 202.55 503.248 200.45C505.208 198.35 508.031 197.3 511.718 197.3C515.405 197.3 518.205 198.35 520.118 200.45C522.078 202.55 523.058 205.513 523.058 209.34V214.52H515.778V208.85C515.778 205.817 514.495 204.3 511.928 204.3C509.361 204.3 508.078 205.817 508.078 208.85V236.22C508.078 239.207 509.361 240.7 511.928 240.7C514.495 240.7 515.778 239.207 515.778 236.22V228.73H523.058V235.66C523.058 239.487 522.078 242.45 520.118 244.55C518.205 246.65 515.405 247.7 511.718 247.7ZM538.865 247.7C535.132 247.7 532.285 246.65 530.325 244.55C528.365 242.403 527.385 239.347 527.385 235.38V198H535.085V235.94C535.085 237.62 535.412 238.833 536.065 239.58C536.765 240.327 537.745 240.7 539.005 240.7C540.265 240.7 541.222 240.327 541.875 239.58C542.575 238.833 542.925 237.62 542.925 235.94V198H550.345V235.38C550.345 239.347 549.365 242.403 547.405 244.55C545.445 246.65 542.598 247.7 538.865 247.7ZM555.829 198H576.829V205H563.529V217.95H574.099V224.95H563.529V240H576.829V247H555.829V198ZM591.405 247.7C587.672 247.7 584.849 246.65 582.935 244.55C581.022 242.403 580.065 239.347 580.065 235.38V232.58H587.345V235.94C587.345 239.113 588.675 240.7 591.335 240.7C592.642 240.7 593.622 240.327 594.275 239.58C594.975 238.787 595.325 237.527 595.325 235.8C595.325 233.747 594.859 231.95 593.925 230.41C592.992 228.823 591.265 226.933 588.745 224.74C585.572 221.94 583.355 219.42 582.095 217.18C580.835 214.893 580.205 212.327 580.205 209.48C580.205 205.607 581.185 202.62 583.145 200.52C585.105 198.373 587.952 197.3 591.685 197.3C595.372 197.3 598.149 198.373 600.015 200.52C601.929 202.62 602.885 205.653 602.885 209.62V211.65H595.605V209.13C595.605 207.45 595.279 206.237 594.625 205.49C593.972 204.697 593.015 204.3 591.755 204.3C589.189 204.3 587.905 205.863 587.905 208.99C587.905 210.763 588.372 212.42 589.305 213.96C590.285 215.5 592.035 217.367 594.555 219.56C597.775 222.36 599.992 224.903 601.205 227.19C602.419 229.477 603.025 232.16 603.025 235.24C603.025 239.253 602.022 242.333 600.015 244.48C598.055 246.627 595.185 247.7 591.405 247.7ZM613.46 205H605.41V198H629.21V205H621.16V247H613.46V205ZM632.938 198H640.638V247H632.938V198ZM657.535 247.7C653.755 247.7 650.862 246.627 648.855 244.48C646.848 242.333 645.845 239.3 645.845 235.38V209.62C645.845 205.7 646.848 202.667 648.855 200.52C650.862 198.373 653.755 197.3 657.535 197.3C661.315 197.3 664.208 198.373 666.215 200.52C668.222 202.667 669.225 205.7 669.225 209.62V235.38C669.225 239.3 668.222 242.333 666.215 244.48C664.208 246.627 661.315 247.7 657.535 247.7ZM657.535 240.7C660.195 240.7 661.525 239.09 661.525 235.87V209.13C661.525 205.91 660.195 204.3 657.535 204.3C654.875 204.3 653.545 205.91 653.545 209.13V235.87C653.545 239.09 654.875 240.7 657.535 240.7ZM658.235 186.66H666.635L659.145 194.71H653.335L658.235 186.66ZM674.433 198H684.093L691.583 227.33H691.723V198H698.583V247H690.673L681.433 211.23H681.293V247H674.433V198ZM715.516 198H727.276C731.103 198 733.973 199.027 735.886 201.08C737.8 203.133 738.756 206.143 738.756 210.11V234.89C738.756 238.857 737.8 241.867 735.886 243.92C733.973 245.973 731.103 247 727.276 247H715.516V198ZM727.136 240C728.396 240 729.353 239.627 730.006 238.88C730.706 238.133 731.056 236.92 731.056 235.24V209.76C731.056 208.08 730.706 206.867 730.006 206.12C729.353 205.373 728.396 205 727.136 205H723.216V240H727.136ZM743.954 198H764.954V205H751.654V217.95H762.224V224.95H751.654V240H764.954V247H743.954V198ZM791.795 247.7C788.061 247.7 785.215 246.65 783.255 244.55C781.295 242.403 780.315 239.347 780.315 235.38V198H788.015V235.94C788.015 237.62 788.341 238.833 788.995 239.58C789.695 240.327 790.675 240.7 791.935 240.7C793.195 240.7 794.151 240.327 794.805 239.58C795.505 238.833 795.855 237.62 795.855 235.94V198H803.275V235.38C803.275 239.347 802.295 242.403 800.335 244.55C798.375 246.65 795.528 247.7 791.795 247.7ZM808.759 198H818.419L825.909 227.33H826.049V198H832.909V247H824.999L815.759 211.23H815.619V247H808.759V198ZM860.693 247.7C857.006 247.7 854.183 246.65 852.223 244.55C850.309 242.45 849.353 239.487 849.353 235.66V209.34C849.353 205.513 850.309 202.55 852.223 200.45C854.183 198.35 857.006 197.3 860.693 197.3C864.379 197.3 867.179 198.35 869.093 200.45C871.053 202.55 872.033 205.513 872.033 209.34V214.52H864.753V208.85C864.753 205.817 863.469 204.3 860.903 204.3C858.336 204.3 857.053 205.817 857.053 208.85V236.22C857.053 239.207 858.336 240.7 860.903 240.7C863.469 240.7 864.753 239.207 864.753 236.22V228.73H872.033V235.66C872.033 239.487 871.053 242.45 869.093 244.55C867.179 246.65 864.379 247.7 860.693 247.7ZM876.64 198H884.34V240H897.01V247H876.64V198ZM900.702 198H908.402V247H900.702V198ZM925.019 247.7C921.332 247.7 918.509 246.65 916.549 244.55C914.635 242.45 913.679 239.487 913.679 235.66V209.34C913.679 205.513 914.635 202.55 916.549 200.45C918.509 198.35 921.332 197.3 925.019 197.3C928.705 197.3 931.505 198.35 933.419 200.45C935.379 202.55 936.359 205.513 936.359 209.34V214.52H929.079V208.85C929.079 205.817 927.795 204.3 925.229 204.3C922.662 204.3 921.379 205.817 921.379 208.85V236.22C921.379 239.207 922.662 240.7 925.229 240.7C927.795 240.7 929.079 239.207 929.079 236.22V228.73H936.359V235.66C936.359 239.487 935.379 242.45 933.419 244.55C931.505 246.65 928.705 247.7 925.019 247.7ZM940.966 198H948.666V218.65L958.466 198H966.166L956.996 215.99L966.306 247H958.256L951.746 225.16L948.666 231.39V247H940.966V198Z" fill="#F2F2F2"/>
</svg>
